<?xml version="1.0" standalone="no"?>
<!DOCTYPE svg PUBLIC "-//W3C//DTD SVG 20010904//EN"
 "http://www.w3.org/TR/2001/REC-SVG-20010904/DTD/svg10.dtd">
<svg version="1.0" xmlns="http://www.w3.org/2000/svg"
 width="512.000000pt" height="512.000000pt" viewBox="0 0 512.000000 512.000000"
 preserveAspectRatio="xMidYMid meet">

<g transform="translate(0.000000,512.000000) scale(0.100000,-0.100000)"
fill="#000000" stroke="none">
<path d="M1221 4964 c-335 -73 -709 -396 -1062 -917 -147 -216 -185 -311 -141
-350 41 -38 126 -18 387 90 238 99 490 175 673 202 88 14 265 15 307 3 29 -8
30 -11 42 -98 22 -164 33 -590 23 -894 -18 -520 -68 -899 -151 -1140 -12 -36
-68 -162 -124 -280 -202 -423 -252 -569 -262 -760 -6 -128 11 -211 65 -314 76
-145 247 -276 411 -316 68 -16 200 -8 261 16 243 96 428 373 509 759 38 185
45 351 32 728 -13 383 -37 1308 -46 1757 -3 162 -8 348 -11 413 l-6 117 416 0
416 0 -5 -37 c-26 -190 -69 -968 -80 -1438 -14 -582 33 -1242 110 -1551 75
-302 234 -536 454 -672 389 -239 941 -171 1335 163 302 257 419 688 271 1000
-42 89 -102 158 -156 179 -37 15 -44 15 -64 2 -21 -14 -23 -23 -26 -153 -4
-128 -6 -143 -33 -197 -34 -69 -119 -159 -199 -210 -92 -59 -179 -88 -283 -93
-153 -9 -264 37 -372 152 -179 190 -276 496 -312 980 -32 433 21 1094 138
1725 l27 145 495 5 c532 6 509 3 621 60 148 75 226 209 236 405 14 277 -109
474 -328 524 -29 7 -640 10 -1774 10 -1439 -1 -1741 -3 -1794 -15z"/>
</g>
</svg>
